HIERARCHY
ROOT Hips
{
	OFFSET 0.000000 0.000000 0.000000
	CHANNELS 6 Xposition Yposition Zposition Zrotation Yrotation Xrotation 
	JOINT LHipJoint
	{
		OFFSET 0.000000 0.000000 0.000000
		CHANNELS 3 Zrotation Yrotation Xrotation
		JOINT LeftUpLeg
		{
			OFFSET 1.363060 -1.794630 0.839290
			CHANNELS 3 Zrotation Yrotation Xrotation
			JOINT LeftLeg
			{
				OFFSET 2.448110 -6.726130 0.000000
				CHANNELS 3 Zrotation Yrotation Xrotation
				JOINT LeftFoot
				{
					OFFSET 2.562200 -7.039590 0.000000
					CHANNELS 3 Zrotation Yrotation Xrotation
					JOINT LeftToeBase
					{
						OFFSET 0.157640 -0.433110 2.322550
						CHANNELS 3 Zrotation Yrotation Xrotation
						End Site
						{
							OFFSET 0.000000 0.000000 0.000000
						}
					}
				}
			}
		}
	}
	JOINT RHipJoint
	{
		OFFSET 0.000000 0.000000 0.000000
		CHANNELS 3 Zrotation Yrotation Xrotation
		JOINT RightUpLeg
		{
			OFFSET -1.305520 -1.794630 0.839290
			CHANNELS 3 Zrotation Yrotation Xrotation
			JOINT RightLeg
			{
				OFFSET -2.542530 -6.985550 0.000000
				CHANNELS 3 Zrotation Yrotation Xrotation
				JOINT RightFoot
				{
					OFFSET -2.568260 -7.056230 0.000000
					CHANNELS 3 Zrotation Yrotation Xrotation
					JOINT RightToeBase
					{
						OFFSET -0.164730 -0.452590 2.363150
						CHANNELS 3 Zrotation Yrotation Xrotation
						End Site
						{
							OFFSET 0.000000 0.000000 0.000000
						}
					}
				}
			}
		}
	}
}
MOTION
Frames: 19
Frame Time: 0.008333
16.062393 12.648213 2.998557 85.644316 -87.643480 1.951527 -9.121575 -0.492155 3.402373 -4.631068 -16.968413 -134.136476 -0.244700 9.889311 81.067439 4.089076 5.271974 -32.904771 -3.154101 0.000000 -44.460900 10.038956 2.144156 4.871294 0.925492 7.272628 -136.351387 -0.240428 -11.526385 83.073345 -2.643041 -0.199225 -30.830220 1.413099 0.000000 -60.820200
16.027958 12.629370 2.999194 85.201789 -87.701220 2.456724 -9.127020 -0.511466 3.408861 -4.566897 -16.884972 -134.221298 -0.185052 9.908580 81.374090 4.116895 5.346255 -33.083818 -3.205200 -0.000000 -44.679499 10.029722 2.159098 4.865197 0.962565 7.314986 -136.352297 -0.279784 -11.540784 83.325553 -2.666666 -0.223233 -31.017737 1.438200 0.000000 -60.973900
15.992962 12.611125 2.999940 84.651227 -87.768715 3.057001 -9.132428 -0.531634 3.414817 -4.501183 -16.789739 -134.291259 -0.121912 9.924864 81.683103 4.147853 5.440018 -33.259171 -3.261200 0.000000 -44.892500 10.016902 2.175221 4.854908 1.015709 7.366628 -136.324946 -0.317041 -11.553036 83.572652 -2.693934 -0.255080 -31.219417 1.467000 -0.000000 -61.104400
15.957282 12.593730 3.000959 83.923092 -87.850271 3.820185 -9.138808 -0.552674 3.421315 -4.429533 -16.678000 -134.348975 -0.055034 9.938106 81.993958 4.181368 5.551745 -33.429878 -3.321400 -0.000000 -45.094300 9.999298 2.192683 4.840744 1.084668 7.431691 -136.266898 -0.351898 -11.562422 83.812539 -2.725629 -0.297581 -31.435317 1.500300 -0.000000 -61.210700
15.920677 12.577268 3.002227 83.004064 -87.944190 4.761870 -9.146835 -0.574425 3.428766 -4.352140 -16.550571 -134.392315 0.015024 9.947943 82.304687 4.216497 5.678190 -33.594355 -3.384900 -0.000000 -45.280200 9.976901 2.212080 4.823643 1.164979 7.507497 -136.179078 -0.384745 -11.568374 84.044866 -2.761524 -0.351053 -31.663477 1.538200 -0.000001 -61.289000
15.883334 12.561980 3.003413 82.046981 -88.036270 5.728226 -9.154629 -0.596456 3.436436 -4.276579 -16.422252 -134.415093 0.086208 9.953950 82.610176 4.252822 5.816304 -33.751650 -3.450900 0.000000 -45.446600 9.952381 2.234255 4.806236 1.242539 7.576709 -136.068538 -0.417682 -11.570503 84.271947 -2.800052 -0.413479 -31.898892 1.579399 0.000000 -61.336100
15.845101 12.548081 3.004831 80.903856 -88.136700 6.867321 -9.164536 -0.619874 3.445624 -4.193687 -16.279743 -134.419233 0.159255 9.955775 82.911162 4.288305 5.959884 -33.900379 -3.517000 0.000000 -45.601200 9.923088 2.259625 4.787383 1.320952 7.649312 -135.928120 -0.450019 -11.567735 84.491007 -2.840307 -0.484243 -32.134444 1.623200 -0.000000 -61.369000
15.805959 12.535752 3.005855 79.846052 -88.224671 7.907821 -9.172886 -0.644492 3.454964 -4.115340 -16.144101 -134.393461 0.231145 9.952524 83.200325 4.322482 6.105079 -34.039070 -3.582400 -0.000000 -45.749100 9.894096 2.288657 4.770887 1.381917 7.701131 -135.768588 -0.484664 -11.559959 84.705357 -2.879680 -0.559582 -32.361614 1.667300 -0.000000 -61.397400
15.765556 12.525398 3.006784 78.741400 -88.309743 8.978402 -9.181329 -0.671791 3.465043 -4.033273 -16.002079 -134.337219 0.302520 9.943629 83.477669 4.353607 6.246932 -34.166680 -3.644900 0.000000 -45.905699 9.862681 2.321714 4.755016 1.429593 7.742115 -135.580661 -0.520879 -11.545876 84.911483 -2.917211 -0.639237 -32.572759 1.710900 -0.000000 -61.440801
15.724127 12.517295 3.007333 77.690817 -88.385652 9.976122 -9.188170 -0.702497 3.475180 -3.950607 -15.858710 -134.242363 0.372133 9.928047 83.739015 4.381110 6.383242 -34.281890 -3.703899 0.000000 -46.084400 9.830630 2.358793 4.740825 1.457817 7.765225 -135.363912 -0.559582 -11.524745 85.108528 -2.951515 -0.722241 -32.760988 1.752700 -0.000000 -61.519800
15.681445 12.511672 3.007451 76.684501 -88.453861 10.908520 -9.193244 -0.737805 3.484707 -3.866218 -15.709658 -134.102584 0.439651 9.904884 83.981866 4.404498 6.513139 -34.384030 -3.758600 -0.000000 -46.299400 9.797371 2.400008 4.727092 1.468102 7.772412 -135.108041 -0.600371 -11.494999 85.292772 -2.982517 -0.810521 -32.923057 1.792700 -0.000000 -61.649500
15.637286 12.508913 3.006848 75.835844 -88.507995 11.658063 -9.194319 -0.777558 3.493338 -3.784455 -15.561434 -133.910401 0.503779 9.873157 84.200854 4.424520 6.639230 -34.472088 -3.809800 0.000001 -46.561400 9.765141 2.444646 4.715668 1.455355 7.758963 -134.812247 -0.643511 -11.455852 85.461258 -3.010851 -0.907247 -33.059108 1.831700 0.000000 -61.834400
15.591624 12.509294 3.005503 75.101211 -88.552409 12.264892 -9.191645 -0.822564 3.500306 -3.705133 -15.407738 -133.657033 0.564595 9.831697 84.393398 4.441621 6.765188 -34.545256 -3.858400 0.000000 -46.877800 9.732658 2.492350 4.704986 1.424629 7.731233 -134.464461 -0.687602 -11.405794 85.608315 -3.038535 -1.018196 -33.173688 1.871800 -0.000000 -62.075300
15.544486 12.513224 3.003323 74.464490 -88.588606 12.739083 -9.184976 -0.872862 3.505128 -3.629892 -15.246423 -133.335219 0.621927 9.779739 84.556285 4.456864 6.896448 -34.602833 -3.905599 -0.000000 -47.249600 9.699106 2.542507 4.694236 1.379766 7.693851 -134.052461 -0.731341 -11.343161 85.728229 -3.068290 -1.150454 -33.274798 1.915800 0.000000 -62.362601
15.495784 12.520919 3.000247 73.911089 -88.617878 13.092935 -9.174467 -0.928171 3.507479 -3.560236 -15.076183 -132.939904 0.675629 9.716821 84.686609 4.471536 7.039172 -34.643847 -3.953300 0.000001 -47.674000 9.664044 2.594309 4.682959 1.324177 7.651045 -133.567931 -0.773167 -11.266869 85.815329 -3.103279 -1.311152 -33.373156 1.967300 -0.000000 -62.677600
15.445386 12.532786 2.996221 73.422574 -88.642100 13.338548 -9.160180 -0.987644 3.506723 -3.499484 -14.895636 -132.462427 0.725572 9.642288 84.781724 4.486551 7.198487 -34.667198 -4.002800 -0.000000 -48.142300 9.626700 2.647697 4.670477 1.261693 7.606358 -133.000340 -0.811609 -11.175888 85.864460 -3.146552 -1.507117 -33.480002 2.029600 0.000000 -62.995800
15.393226 12.549098 2.991247 72.996584 -88.658600 13.475278 -9.141943 -1.051618 3.502349 -3.450497 -14.706878 -131.897650 0.771324 9.556058 84.838920 4.502738 7.378436 -34.671375 -4.055100 0.000000 -48.644000 9.587361 2.700838 4.656363 1.195617 7.560216 -132.341725 -0.845404 -11.069444 85.870952 -3.200427 -1.742662 -33.605672 2.105600 0.000000 -63.290700
15.339511 12.570303 2.985290 72.630892 -88.666994 13.498877 -9.119676 -1.118889 3.493665 -3.417206 -14.511188 -131.238519 0.812595 9.457963 84.856485 4.520003 7.580087 -34.653859 -4.110000 0.000000 -49.167200 9.546077 2.754030 4.640164 1.127881 7.511773 -131.585060 -0.873703 -10.947475 85.832228 -3.265979 -2.019161 -33.757255 2.197100 0.000000 -63.536300
15.284055 12.596308 2.978428 72.367288 -88.663398 13.370845 -9.093662 -1.187038 3.482799 -3.400600 -14.315853 -130.488351 0.848729 9.348431 84.832488 4.538284 7.802102 -34.612134 -4.166800 -0.000000 -49.701900 9.505265 2.806574 4.624415 1.056753 7.456268 -130.734299 -0.896101 -10.811190 85.746910 -3.342671 -2.333568 -33.935900 2.303900 0.000000 -63.709400
